<?xml version="1.0" standalone="no"?><!DOCTYPE svg PUBLIC "-//W3C//DTD SVG 1.1//EN" "http://www.w3.org/Graphics/SVG/1.1/DTD/svg11.dtd"><svg t="1614587797145" class="icon" viewBox="0 0 1024 1024" version="1.1" xmlns="http://www.w3.org/2000/svg" p-id="11147" xmlns:xlink="http://www.w3.org/1999/xlink" width="200" height="200"><defs><style type="text/css"></style></defs><path d="M512 451.669333l97.834667-97.834666a42.666667 42.666667 0 0 1 60.330666 60.330666l-256 256a42.666667 42.666667 0 1 1-60.330666-60.330666L451.669333 512 353.834667 414.165333a42.666667 42.666667 0 0 1 60.330666-60.330666L512 451.669333z m-341.333333 197.973334l75.52 91.136a42.666667 42.666667 0 0 1-65.706667 54.442666l-85.333333-102.997333a42.666667 42.666667 0 0 1-9.813334-27.221333V358.997333a42.666667 42.666667 0 0 1 12.501334-30.165333l230.997333-230.997333A42.666667 42.666667 0 0 1 358.997333 85.333333h326.229334a42.666667 42.666667 0 0 1 31.445333 13.824l210.773333 229.973334a42.666667 42.666667 0 0 1 11.221334 28.8v308.138666a42.666667 42.666667 0 0 1-11.221334 28.842667l-210.773333 229.930667a42.666667 42.666667 0 0 1-31.445333 13.824H358.997333a42.666667 42.666667 0 0 1 0-85.333334h307.456L853.333333 649.472V374.528L666.453333 170.666667H376.661333L170.666667 376.661333v272.938667z m396.501333-22.144a42.666667 42.666667 0 0 1 60.330667-60.330667l42.666666 42.666667a42.666667 42.666667 0 0 1-60.330666 60.330666l-42.666667-42.666666z" p-id="11148"></path></svg>