<?xml version="1.0" standalone="no"?><!DOCTYPE svg PUBLIC "-//W3C//DTD SVG 1.1//EN" "http://www.w3.org/Graphics/SVG/1.1/DTD/svg11.dtd"><svg t="1614587859529" class="icon" viewBox="0 0 1066 1024" version="1.1" xmlns="http://www.w3.org/2000/svg" p-id="18868" xmlns:xlink="http://www.w3.org/1999/xlink" width="208.203125" height="200"><defs><style type="text/css"></style></defs><path d="M554.666667 426.666667a42.666667 42.666667 0 0 0-42.666667 42.666666v85.333334a42.666667 42.666667 0 1 0 85.333333 0v-85.333334a42.666667 42.666667 0 0 0-42.666666-42.666666z m360.96-13.653334A362.666667 362.666667 0 0 0 354.133333 143.36a365.226667 365.226667 0 0 0-160.426666 267.52A360.96 360.96 0 0 0 298.666667 702.293333l226.133333 226.56a42.666667 42.666667 0 0 0 60.586667 0L810.666667 702.293333a360.96 360.96 0 0 0 104.96-291.413333v2.133333z m-164.693334 229.12l-196.266666 196.266667-196.266667-196.266667a276.906667 276.906667 0 0 1-79.786667-222.72A280.32 280.32 0 0 1 401.92 213.333333a276.053333 276.053333 0 0 1 305.493333 0 280.32 280.32 0 0 1 123.306667 205.226667 276.906667 276.906667 0 0 1-79.786667 223.573333z m-157.013333-319.146666a23.893333 23.893333 0 0 0-3.84-7.253334l-5.12-6.4A42.666667 42.666667 0 0 0 546.133333 298.666667h-7.68l-7.68 3.84-6.4 5.546666-5.12 6.4a23.893333 23.893333 0 0 0-3.84 7.253334 25.6 25.6 0 0 0-2.56 8.106666A52.48 52.48 0 0 0 512 341.333333a37.546667 37.546667 0 0 0 3.413333 16.64c2.133333 5.034667 5.205333 9.642667 8.96 13.653334 4.053333 3.968 8.832 7.168 14.08 9.386666 10.453333 3.968 21.973333 3.968 32.426667 0a50.773333 50.773333 0 0 0 14.08-9.386666 47.36 47.36 0 0 0 8.96-13.653334A42.666667 42.666667 0 0 0 597.333333 341.333333a52.48 52.48 0 0 0 0-8.106666 25.6 25.6 0 0 0-3.413333-10.24z" fill="#42526E" p-id="18869"></path></svg>